<?xml version="1.0" encoding="UTF-8" standalone="no"?>
<!DOCTYPE svg PUBLIC "-//W3C//DTD SVG 1.1//EN" "http://www.w3.org/Graphics/SVG/1.1/DTD/svg11.dtd">
<svg width="100%" height="100%" viewBox="0 0 987 274" version="1.1" xmlns="http://www.w3.org/2000/svg" xmlns:xlink="http://www.w3.org/1999/xlink" xml:space="preserve" xmlns:serif="http://www.serif.com/" style="fill-rule:evenodd;clip-rule:evenodd;stroke-linejoin:round;stroke-miterlimit:1.41421;">
    <g transform="matrix(1,0,0,1,-56.4011,-161.166)">
        <g transform="matrix(1,0,0,1,-85.2044,-116.648)">
            <g transform="matrix(0.179778,0,0,0.179778,42.5841,283.087)">
                <g transform="matrix(1,0,0,1,487.652,-0.58696)">
                    <path d="M160.78,276.23C160.94,287.29 163.09,298.57 164.25,309.28C166.93,334.03 198.43,341.49 215.87,326.06C217.94,324.23 220.31,322.48 221.71,320.19C234.61,298.97 254.21,288.05 277.44,281.1C287.75,278.02 297.55,271.67 306.22,265.02C322.49,252.55 321.97,234.19 305.39,222.33C277.46,202.33 245.91,193.23 211.72,193.99C190.78,194.46 174.51,207.14 168.64,228.59C165.5,240.08 163.64,251.84 161.64,263.59C160.972,267.769 160.684,271.999 160.78,276.23Z" style="fill:white;fill-rule:nonzero;"/>
                </g>
                <g transform="matrix(1,0,0,1,487.652,-0.58696)">
                    <path d="M458.82,421.9C459.047,433.18 460.006,444.434 461.69,455.59C465.54,481.4 496.9,484.59 511.14,473.19C514.83,470.25 518.79,467.11 521.14,463.19C532.23,444.84 548.84,435.27 568.82,428.66C581.88,424.215 594.046,417.483 604.75,408.78C620.23,396.23 618.88,379.58 602.82,367.97C575.35,348.11 544.13,339.02 510.5,339.27C487.72,339.43 471.73,352.39 465.28,375.99C462.55,385.99 459.93,396.89 459.17,407.25C458.85,411.91 458.74,416.86 458.82,421.9Z" style="fill:white;fill-rule:nonzero;"/>
                </g>
                <g transform="matrix(1,0,0,1,487.652,-0.58696)">
                    <path d="M478,754.31C479.28,764.52 480,774.8 481.93,784.85C486.4,808.44 513.67,817.98 532.59,802.85C533.584,802.191 534.459,801.37 535.18,800.42C550.99,774.42 576.27,762.59 603.66,753.11C611.95,750.24 619.73,744.37 626.26,738.29C640.07,725.42 639.08,710.57 624.14,698.96C604.99,684.08 582.71,676.2 559.08,671.96C551.319,670.487 543.448,669.664 535.55,669.5C509.41,669.29 494.22,680.39 486.05,705.2C484.222,710.406 482.84,715.759 481.92,721.2C480.31,732.19 479.28,743.2 478,754.31Z" style="fill:white;fill-rule:nonzero;"/>
                </g>
                <g transform="matrix(1,0,0,1,487.652,-0.58696)">
                    <path d="M775.09,897.36C776.49,909.17 777.47,918.99 778.86,928.74C780.54,940.52 785.86,949.74 798.1,953.24C810.34,956.74 821.56,955.52 831.41,946.84C831.734,946.612 832.023,946.339 832.27,946.03C848.14,920.23 872.9,907.58 900.67,898.88C906.9,896.88 912.67,892.72 918,888.74C938.66,873.41 938.22,855.32 917,841.09C897.65,828.09 876.13,820.68 853.29,816.82C849.39,816.16 845.48,815.53 841.55,815.08C810,811.49 789.25,825.17 781.69,856C778.23,870.07 777,884.73 775.09,897.36Z" style="fill:white;fill-rule:nonzero;"/>
                </g>
                <g transform="matrix(1,0,0,1,487.652,-0.58696)">
                    <path d="M752.51,726.75C754.75,746.21 761.17,765.1 778.82,778.57C787.82,785.41 797.66,789.46 808.56,785C820.42,780.14 825.64,769.29 825.9,757.47C826.39,735.26 819.39,715.39 801.41,701.07C791.94,693.53 781.04,687.93 768.73,694.33C756.42,700.73 753,712.2 752.51,726.75Z" style="fill:white;fill-rule:nonzero;"/>
                </g>
                <g transform="matrix(1,0,0,1,487.652,-0.58696)">
                    <path d="M469.69,656.26C469.48,626.88 426.69,595.06 398.83,603.62C387.01,607.26 379.32,618.62 381.13,630.9C381.847,636.354 383.47,641.65 385.93,646.57C397.27,668.09 416.11,679.57 439.47,683.28C456.15,685.94 469.81,673 469.69,656.26Z" style="fill:white;fill-rule:nonzero;"/>
                </g>
                <g transform="matrix(1,0,0,1,487.652,-0.58696)">
                    <path d="M705.67,747.94C685.24,747.85 673.8,763.94 679.72,784.34C686.16,806.58 715.45,828.54 738.91,828.71C758.66,828.86 771.1,812.71 765.84,793.71C759,768.92 731.54,748 705.67,747.94Z" style="fill:white;fill-rule:nonzero;"/>
                </g>
                <g transform="matrix(1,0,0,1,487.652,-0.58696)">
                    <path d="M455.55,583.63C457.62,602.95 465.42,623.35 486.49,636.27C503.49,646.68 520.71,640.13 526.93,621.32C535.06,596.72 517.34,558.56 493.21,548.71C473,540.47 455.5,554.84 455.55,583.63Z" style="fill:white;fill-rule:nonzero;"/>
                </g>
                <g transform="matrix(1,0,0,1,487.652,-0.58696)">
                    <path d="M181.46,165.31C197,165.44 208.46,155.91 210.11,142C212.93,117.42 206.11,95.8 186.32,79.8C177.62,72.8 167.86,66.95 155.93,72.03C143.05,77.52 137.56,88.92 137.85,101.55C138.44,126.92 147.91,148.45 171.02,161.77C175,164.06 179.81,164.78 181.46,165.31Z" style="fill:white;fill-rule:nonzero;"/>
                </g>
                <g transform="matrix(1,0,0,1,487.652,-0.58696)">
                    <path d="M508.26,276.05C506.96,256.5 500.35,238.79 484.26,225.85C474.51,218 463.72,211.66 450.8,218.56C438.04,225.37 434.23,237.84 435.08,250.76C436.32,269.66 442.83,286.93 457.79,299.89C467.46,308.27 478.24,314.72 491.08,309.04C504.66,303 508.28,290.5 508.26,276.05Z" style="fill:white;fill-rule:nonzero;"/>
                </g>
                <g transform="matrix(1,0,0,1,487.652,-0.58696)">
                    <path d="M91.94,126.7C70.38,126.19 58.27,142.46 65.01,162.87C72.74,186.25 100.01,207.14 123.86,207.87C144.57,208.53 157.24,188.82 149.52,167.92C141.47,146.14 115.09,127.24 91.94,126.7Z" style="fill:white;fill-rule:nonzero;"/>
                </g>
                <g transform="matrix(1,0,0,1,487.652,-0.58696)">
                    <path d="M387.86,272.19C367.55,272.37 356.17,287.89 362.02,307.43C368.82,330.16 395.31,351.34 418.92,352.95C440.55,354.42 454.13,336.57 447.49,315.41C440.27,292.44 412,272 387.86,272.19Z" style="fill:white;fill-rule:nonzero;"/>
                </g>
                <g transform="matrix(1,0,0,1,487.652,-0.58696)">
                    <path d="M433.38,771.49C450.09,772.15 460.49,768.55 466.73,758.17C473.06,747.63 470.33,736.78 464.57,726.67C454.41,708.83 425.8,696.13 406.15,700.59C387.29,704.87 379.25,724.68 389.55,742.73C400.21,761.4 417.22,770.05 433.38,771.49Z" style="fill:white;fill-rule:nonzero;"/>
                </g>
                <g transform="matrix(1,0,0,1,487.652,-0.58696)">
                    <path d="M419.1,441.18C433.5,441.18 444.6,434.74 448.27,423.34C453.32,407.63 445.86,395.15 435.12,385.34C422.12,373.49 405.9,368.16 388.12,369.98C370.12,371.82 360.12,390.47 367.22,408.23C374.89,427.53 396.47,441.23 419.1,441.18Z" style="fill:white;fill-rule:nonzero;"/>
                </g>
                <g transform="matrix(1,0,0,1,487.652,-0.58696)">
                    <path d="M101.4,224.41C71.92,224.66 59.52,245.74 72.28,267.67C83.9,287.67 102.53,296.42 124.88,295.78C147.23,295.14 158.41,275.78 149.13,255.48C139.08,233.38 119.51,226.45 101.4,224.41Z" style="fill:white;fill-rule:nonzero;"/>
                </g>
                <g transform="matrix(1,0,0,1,487.652,-0.58696)">
                    <path d="M227.43,135.54C228.85,152.3 231.43,168.54 246.79,179.18C260.64,188.72 275.22,186.25 285.01,172.68C297.69,155.1 294.74,120.76 279.12,105.6C270.3,97 259.6,92.29 247.85,97.13C234.55,102.61 229.76,115.08 227.48,128.43C227.09,130.74 227.43,133.17 227.43,135.54Z" style="fill:white;fill-rule:nonzero;"/>
                </g>
                <g transform="matrix(1,0,0,1,487.652,-0.58696)">
                    <path d="M524.52,280.45C526.06,296.73 528.17,312.86 542.69,323.61C558.3,335.17 572.25,332.67 583.16,316.61C594.43,300.02 592.16,268.61 578.38,253.2C569.9,243.71 559.21,237.88 546.72,242C531.81,246.91 527.35,260.55 524.58,274.54C524.19,276.43 524.52,278.47 524.52,280.45Z" style="fill:white;fill-rule:nonzero;"/>
                </g>
                <g transform="matrix(1,0,0,1,487.652,-0.58696)">
                    <path d="M732.42,917C762.42,917 774.8,896.41 762.42,873.43C752.69,855.34 724.74,841.89 704.9,845.75C685.96,849.43 677.02,867.39 685.71,885.75C695.72,906.88 714.09,915.26 732.42,917Z" style="fill:white;fill-rule:nonzero;"/>
                </g>
                <g transform="matrix(1,0,0,1,487.652,-0.58696)">
                    <path d="M907.71,765.59C906.974,755.543 904.561,745.69 900.57,736.44C894.57,722.87 881.2,715.24 868.35,716.95C854.7,718.78 848.15,728.79 844.68,740.57C839.68,757.57 842.09,774.37 851.06,789.57C858.25,801.77 873.24,808.45 884.14,805.77C903.7,801 908.87,783.34 907.71,765.59Z" style="fill:white;fill-rule:nonzero;"/>
                </g>
                <g transform="matrix(1,0,0,1,487.652,-0.58696)">
                    <path d="M545.61,612.93C546.137,622.207 548.205,631.332 551.73,639.93C557.98,654.33 573.01,662.71 585.73,660.42C597.51,658.3 609.31,644.94 609.68,629.95C610.047,618.215 608.517,606.498 605.15,595.25C599.85,578.25 585.21,569.65 569.92,571.74C549.85,574.51 544.48,594.06 545.61,612.93Z" style="fill:white;fill-rule:nonzero;"/>
                </g>
            </g>
            <g transform="matrix(-0.16468,0.153579,-0.153579,-0.16468,710.914,265.936)">
                <g transform="matrix(1,0,0,1,487.652,-0.58696)">
                    <path d="M160.78,276.23C160.94,287.29 163.09,298.57 164.25,309.28C166.93,334.03 198.43,341.49 215.87,326.06C217.94,324.23 220.31,322.48 221.71,320.19C234.61,298.97 254.21,288.05 277.44,281.1C287.75,278.02 297.55,271.67 306.22,265.02C322.49,252.55 321.97,234.19 305.39,222.33C277.46,202.33 245.91,193.23 211.72,193.99C190.78,194.46 174.51,207.14 168.64,228.59C165.5,240.08 163.64,251.84 161.64,263.59C160.972,267.769 160.684,271.999 160.78,276.23Z" style="fill:white;fill-rule:nonzero;"/>
                </g>
                <g transform="matrix(1,0,0,1,487.652,-0.58696)">
                    <path d="M458.82,421.9C459.047,433.18 460.006,444.434 461.69,455.59C465.54,481.4 496.9,484.59 511.14,473.19C514.83,470.25 518.79,467.11 521.14,463.19C532.23,444.84 548.84,435.27 568.82,428.66C581.88,424.215 594.046,417.483 604.75,408.78C620.23,396.23 618.88,379.58 602.82,367.97C575.35,348.11 544.13,339.02 510.5,339.27C487.72,339.43 471.73,352.39 465.28,375.99C462.55,385.99 459.93,396.89 459.17,407.25C458.85,411.91 458.74,416.86 458.82,421.9Z" style="fill:white;fill-rule:nonzero;"/>
                </g>
                <g transform="matrix(1,0,0,1,487.652,-0.58696)">
                    <path d="M478,754.31C479.28,764.52 480,774.8 481.93,784.85C486.4,808.44 513.67,817.98 532.59,802.85C533.584,802.191 534.459,801.37 535.18,800.42C550.99,774.42 576.27,762.59 603.66,753.11C611.95,750.24 619.73,744.37 626.26,738.29C640.07,725.42 639.08,710.57 624.14,698.96C604.99,684.08 582.71,676.2 559.08,671.96C551.319,670.487 543.448,669.664 535.55,669.5C509.41,669.29 494.22,680.39 486.05,705.2C484.222,710.406 482.84,715.759 481.92,721.2C480.31,732.19 479.28,743.2 478,754.31Z" style="fill:white;fill-rule:nonzero;"/>
                </g>
                <g transform="matrix(1,0,0,1,487.652,-0.58696)">
                    <path d="M775.09,897.36C776.49,909.17 777.47,918.99 778.86,928.74C780.54,940.52 785.86,949.74 798.1,953.24C810.34,956.74 821.56,955.52 831.41,946.84C831.734,946.612 832.023,946.339 832.27,946.03C848.14,920.23 872.9,907.58 900.67,898.88C906.9,896.88 912.67,892.72 918,888.74C938.66,873.41 938.22,855.32 917,841.09C897.65,828.09 876.13,820.68 853.29,816.82C849.39,816.16 845.48,815.53 841.55,815.08C810,811.49 789.25,825.17 781.69,856C778.23,870.07 777,884.73 775.09,897.36Z" style="fill:white;fill-rule:nonzero;"/>
                </g>
                <g transform="matrix(1,0,0,1,487.652,-0.58696)">
                    <path d="M752.51,726.75C754.75,746.21 761.17,765.1 778.82,778.57C787.82,785.41 797.66,789.46 808.56,785C820.42,780.14 825.64,769.29 825.9,757.47C826.39,735.26 819.39,715.39 801.41,701.07C791.94,693.53 781.04,687.93 768.73,694.33C756.42,700.73 753,712.2 752.51,726.75Z" style="fill:white;fill-rule:nonzero;"/>
                </g>
                <g transform="matrix(1,0,0,1,487.652,-0.58696)">
                    <path d="M469.69,656.26C469.48,626.88 426.69,595.06 398.83,603.62C387.01,607.26 379.32,618.62 381.13,630.9C381.847,636.354 383.47,641.65 385.93,646.57C397.27,668.09 416.11,679.57 439.47,683.28C456.15,685.94 469.81,673 469.69,656.26Z" style="fill:white;fill-rule:nonzero;"/>
                </g>
                <g transform="matrix(1,0,0,1,487.652,-0.58696)">
                    <path d="M705.67,747.94C685.24,747.85 673.8,763.94 679.72,784.34C686.16,806.58 715.45,828.54 738.91,828.71C758.66,828.86 771.1,812.71 765.84,793.71C759,768.92 731.54,748 705.67,747.94Z" style="fill:white;fill-rule:nonzero;"/>
                </g>
                <g transform="matrix(1,0,0,1,487.652,-0.58696)">
                    <path d="M455.55,583.63C457.62,602.95 465.42,623.35 486.49,636.27C503.49,646.68 520.71,640.13 526.93,621.32C535.06,596.72 517.34,558.56 493.21,548.71C473,540.47 455.5,554.84 455.55,583.63Z" style="fill:white;fill-rule:nonzero;"/>
                </g>
                <g transform="matrix(1,0,0,1,487.652,-0.58696)">
                    <path d="M181.46,165.31C197,165.44 208.46,155.91 210.11,142C212.93,117.42 206.11,95.8 186.32,79.8C177.62,72.8 167.86,66.95 155.93,72.03C143.05,77.52 137.56,88.92 137.85,101.55C138.44,126.92 147.91,148.45 171.02,161.77C175,164.06 179.81,164.78 181.46,165.31Z" style="fill:white;fill-rule:nonzero;"/>
                </g>
                <g transform="matrix(1,0,0,1,487.652,-0.58696)">
                    <path d="M508.26,276.05C506.96,256.5 500.35,238.79 484.26,225.85C474.51,218 463.72,211.66 450.8,218.56C438.04,225.37 434.23,237.84 435.08,250.76C436.32,269.66 442.83,286.93 457.79,299.89C467.46,308.27 478.24,314.72 491.08,309.04C504.66,303 508.28,290.5 508.26,276.05Z" style="fill:white;fill-rule:nonzero;"/>
                </g>
                <g transform="matrix(1,0,0,1,487.652,-0.58696)">
                    <path d="M91.94,126.7C70.38,126.19 58.27,142.46 65.01,162.87C72.74,186.25 100.01,207.14 123.86,207.87C144.57,208.53 157.24,188.82 149.52,167.92C141.47,146.14 115.09,127.24 91.94,126.7Z" style="fill:white;fill-rule:nonzero;"/>
                </g>
                <g transform="matrix(1,0,0,1,487.652,-0.58696)">
                    <path d="M387.86,272.19C367.55,272.37 356.17,287.89 362.02,307.43C368.82,330.16 395.31,351.34 418.92,352.95C440.55,354.42 454.13,336.57 447.49,315.41C440.27,292.44 412,272 387.86,272.19Z" style="fill:white;fill-rule:nonzero;"/>
                </g>
                <g transform="matrix(1,0,0,1,487.652,-0.58696)">
                    <path d="M433.38,771.49C450.09,772.15 460.49,768.55 466.73,758.17C473.06,747.63 470.33,736.78 464.57,726.67C454.41,708.83 425.8,696.13 406.15,700.59C387.29,704.87 379.25,724.68 389.55,742.73C400.21,761.4 417.22,770.05 433.38,771.49Z" style="fill:white;fill-rule:nonzero;"/>
                </g>
                <g transform="matrix(1,0,0,1,487.652,-0.58696)">
                    <path d="M419.1,441.18C433.5,441.18 444.6,434.74 448.27,423.34C453.32,407.63 445.86,395.15 435.12,385.34C422.12,373.49 405.9,368.16 388.12,369.98C370.12,371.82 360.12,390.47 367.22,408.23C374.89,427.53 396.47,441.23 419.1,441.18Z" style="fill:white;fill-rule:nonzero;"/>
                </g>
                <g transform="matrix(1,0,0,1,487.652,-0.58696)">
                    <path d="M101.4,224.41C71.92,224.66 59.52,245.74 72.28,267.67C83.9,287.67 102.53,296.42 124.88,295.78C147.23,295.14 158.41,275.78 149.13,255.48C139.08,233.38 119.51,226.45 101.4,224.41Z" style="fill:white;fill-rule:nonzero;"/>
                </g>
                <g transform="matrix(1,0,0,1,487.652,-0.58696)">
                    <path d="M227.43,135.54C228.85,152.3 231.43,168.54 246.79,179.18C260.64,188.72 275.22,186.25 285.01,172.68C297.69,155.1 294.74,120.76 279.12,105.6C270.3,97 259.6,92.29 247.85,97.13C234.55,102.61 229.76,115.08 227.48,128.43C227.09,130.74 227.43,133.17 227.43,135.54Z" style="fill:white;fill-rule:nonzero;"/>
                </g>
                <g transform="matrix(1,0,0,1,487.652,-0.58696)">
                    <path d="M524.52,280.45C526.06,296.73 528.17,312.86 542.69,323.61C558.3,335.17 572.25,332.67 583.16,316.61C594.43,300.02 592.16,268.61 578.38,253.2C569.9,243.71 559.21,237.88 546.72,242C531.81,246.91 527.35,260.55 524.58,274.54C524.19,276.43 524.52,278.47 524.52,280.45Z" style="fill:white;fill-rule:nonzero;"/>
                </g>
                <g transform="matrix(1,0,0,1,487.652,-0.58696)">
                    <path d="M732.42,917C762.42,917 774.8,896.41 762.42,873.43C752.69,855.34 724.74,841.89 704.9,845.75C685.96,849.43 677.02,867.39 685.71,885.75C695.72,906.88 714.09,915.26 732.42,917Z" style="fill:white;fill-rule:nonzero;"/>
                </g>
                <g transform="matrix(1,0,0,1,487.652,-0.58696)">
                    <path d="M907.71,765.59C906.974,755.543 904.561,745.69 900.57,736.44C894.57,722.87 881.2,715.24 868.35,716.95C854.7,718.78 848.15,728.79 844.68,740.57C839.68,757.57 842.09,774.37 851.06,789.57C858.25,801.77 873.24,808.45 884.14,805.77C903.7,801 908.87,783.34 907.71,765.59Z" style="fill:white;fill-rule:nonzero;"/>
                </g>
                <g transform="matrix(1,0,0,1,487.652,-0.58696)">
                    <path d="M545.61,612.93C546.137,622.207 548.205,631.332 551.73,639.93C557.98,654.33 573.01,662.71 585.73,660.42C597.51,658.3 609.31,644.94 609.68,629.95C610.047,618.215 608.517,606.498 605.15,595.25C599.85,578.25 585.21,569.65 569.92,571.74C549.85,574.51 544.48,594.06 545.61,612.93Z" style="fill:white;fill-rule:nonzero;"/>
                </g>
            </g>
            <g transform="matrix(-0.0027406,0.225163,-0.225163,-0.0027406,735.8,233.765)">
                <g transform="matrix(1,0,0,1,487.652,-0.58696)">
                    <path d="M160.78,276.23C160.94,287.29 163.09,298.57 164.25,309.28C166.93,334.03 198.43,341.49 215.87,326.06C217.94,324.23 220.31,322.48 221.71,320.19C234.61,298.97 254.21,288.05 277.44,281.1C287.75,278.02 297.55,271.67 306.22,265.02C322.49,252.55 321.97,234.19 305.39,222.33C277.46,202.33 245.91,193.23 211.72,193.99C190.78,194.46 174.51,207.14 168.64,228.59C165.5,240.08 163.64,251.84 161.64,263.59C160.972,267.769 160.684,271.999 160.78,276.23Z" style="fill:white;fill-rule:nonzero;"/>
                </g>
                <g transform="matrix(1,0,0,1,487.652,-0.58696)">
                    <path d="M458.82,421.9C459.047,433.18 460.006,444.434 461.69,455.59C465.54,481.4 496.9,484.59 511.14,473.19C514.83,470.25 518.79,467.11 521.14,463.19C532.23,444.84 548.84,435.27 568.82,428.66C581.88,424.215 594.046,417.483 604.75,408.78C620.23,396.23 618.88,379.58 602.82,367.97C575.35,348.11 544.13,339.02 510.5,339.27C487.72,339.43 471.73,352.39 465.28,375.99C462.55,385.99 459.93,396.89 459.17,407.25C458.85,411.91 458.74,416.86 458.82,421.9Z" style="fill:white;fill-rule:nonzero;"/>
                </g>
                <g transform="matrix(1,0,0,1,487.652,-0.58696)">
                    <path d="M478,754.31C479.28,764.52 480,774.8 481.93,784.85C486.4,808.44 513.67,817.98 532.59,802.85C533.584,802.191 534.459,801.37 535.18,800.42C550.99,774.42 576.27,762.59 603.66,753.11C611.95,750.24 619.73,744.37 626.26,738.29C640.07,725.42 639.08,710.57 624.14,698.96C604.99,684.08 582.71,676.2 559.08,671.96C551.319,670.487 543.448,669.664 535.55,669.5C509.41,669.29 494.22,680.39 486.05,705.2C484.222,710.406 482.84,715.759 481.92,721.2C480.31,732.19 479.28,743.2 478,754.31Z" style="fill:white;fill-rule:nonzero;"/>
                </g>
                <g transform="matrix(1,0,0,1,487.652,-0.58696)">
                    <path d="M775.09,897.36C776.49,909.17 777.47,918.99 778.86,928.74C780.54,940.52 785.86,949.74 798.1,953.24C810.34,956.74 821.56,955.52 831.41,946.84C831.734,946.612 832.023,946.339 832.27,946.03C848.14,920.23 872.9,907.58 900.67,898.88C906.9,896.88 912.67,892.72 918,888.74C938.66,873.41 938.22,855.32 917,841.09C897.65,828.09 876.13,820.68 853.29,816.82C849.39,816.16 845.48,815.53 841.55,815.08C810,811.49 789.25,825.17 781.69,856C778.23,870.07 777,884.73 775.09,897.36Z" style="fill:white;fill-rule:nonzero;"/>
                </g>
                <g transform="matrix(1,0,0,1,487.652,-0.58696)">
                    <path d="M752.51,726.75C754.75,746.21 761.17,765.1 778.82,778.57C787.82,785.41 797.66,789.46 808.56,785C820.42,780.14 825.64,769.29 825.9,757.47C826.39,735.26 819.39,715.39 801.41,701.07C791.94,693.53 781.04,687.93 768.73,694.33C756.42,700.73 753,712.2 752.51,726.75Z" style="fill:white;fill-rule:nonzero;"/>
                </g>
                <g transform="matrix(1,0,0,1,487.652,-0.58696)">
                    <path d="M469.69,656.26C469.48,626.88 426.69,595.06 398.83,603.62C387.01,607.26 379.32,618.62 381.13,630.9C381.847,636.354 383.47,641.65 385.93,646.57C397.27,668.09 416.11,679.57 439.47,683.28C456.15,685.94 469.81,673 469.69,656.26Z" style="fill:white;fill-rule:nonzero;"/>
                </g>
                <g transform="matrix(1,0,0,1,487.652,-0.58696)">
                    <path d="M705.67,747.94C685.24,747.85 673.8,763.94 679.72,784.34C686.16,806.58 715.45,828.54 738.91,828.71C758.66,828.86 771.1,812.71 765.84,793.71C759,768.92 731.54,748 705.67,747.94Z" style="fill:white;fill-rule:nonzero;"/>
                </g>
                <g transform="matrix(1,0,0,1,487.652,-0.58696)">
                    <path d="M455.55,583.63C457.62,602.95 465.42,623.35 486.49,636.27C503.49,646.68 520.71,640.13 526.93,621.32C535.06,596.72 517.34,558.56 493.21,548.71C473,540.47 455.5,554.84 455.55,583.63Z" style="fill:white;fill-rule:nonzero;"/>
                </g>
                <g transform="matrix(1,0,0,1,487.652,-0.58696)">
                    <path d="M181.46,165.31C197,165.44 208.46,155.91 210.11,142C212.93,117.42 206.11,95.8 186.32,79.8C177.62,72.8 167.86,66.95 155.93,72.03C143.05,77.52 137.56,88.92 137.85,101.55C138.44,126.92 147.91,148.45 171.02,161.77C175,164.06 179.81,164.78 181.46,165.31Z" style="fill:white;fill-rule:nonzero;"/>
                </g>
                <g transform="matrix(1,0,0,1,487.652,-0.58696)">
                    <path d="M508.26,276.05C506.96,256.5 500.35,238.79 484.26,225.85C474.51,218 463.72,211.66 450.8,218.56C438.04,225.37 434.23,237.84 435.08,250.76C436.32,269.66 442.83,286.93 457.79,299.89C467.46,308.27 478.24,314.72 491.08,309.04C504.66,303 508.28,290.5 508.26,276.05Z" style="fill:white;fill-rule:nonzero;"/>
                </g>
                <g transform="matrix(1,0,0,1,487.652,-0.58696)">
                    <path d="M91.94,126.7C70.38,126.19 58.27,142.46 65.01,162.87C72.74,186.25 100.01,207.14 123.86,207.87C144.57,208.53 157.24,188.82 149.52,167.92C141.47,146.14 115.09,127.24 91.94,126.7Z" style="fill:white;fill-rule:nonzero;"/>
                </g>
                <g transform="matrix(1,0,0,1,487.652,-0.58696)">
                    <path d="M387.86,272.19C367.55,272.37 356.17,287.89 362.02,307.43C368.82,330.16 395.31,351.34 418.92,352.95C440.55,354.42 454.13,336.57 447.49,315.41C440.27,292.44 412,272 387.86,272.19Z" style="fill:white;fill-rule:nonzero;"/>
                </g>
                <g transform="matrix(1,0,0,1,487.652,-0.58696)">
                    <path d="M433.38,771.49C450.09,772.15 460.49,768.55 466.73,758.17C473.06,747.63 470.33,736.78 464.57,726.67C454.41,708.83 425.8,696.13 406.15,700.59C387.29,704.87 379.25,724.68 389.55,742.73C400.21,761.4 417.22,770.05 433.38,771.49Z" style="fill:white;fill-rule:nonzero;"/>
                </g>
                <g transform="matrix(1,0,0,1,487.652,-0.58696)">
                    <path d="M419.1,441.18C433.5,441.18 444.6,434.74 448.27,423.34C453.32,407.63 445.86,395.15 435.12,385.34C422.12,373.49 405.9,368.16 388.12,369.98C370.12,371.82 360.12,390.47 367.22,408.23C374.89,427.53 396.47,441.23 419.1,441.18Z" style="fill:white;fill-rule:nonzero;"/>
                </g>
                <g transform="matrix(1,0,0,1,487.652,-0.58696)">
                    <path d="M101.4,224.41C71.92,224.66 59.52,245.74 72.28,267.67C83.9,287.67 102.53,296.42 124.88,295.78C147.23,295.14 158.41,275.78 149.13,255.48C139.08,233.38 119.51,226.45 101.4,224.41Z" style="fill:white;fill-rule:nonzero;"/>
                </g>
                <g transform="matrix(1,0,0,1,487.652,-0.58696)">
                    <path d="M227.43,135.54C228.85,152.3 231.43,168.54 246.79,179.18C260.64,188.72 275.22,186.25 285.01,172.68C297.69,155.1 294.74,120.76 279.12,105.6C270.3,97 259.6,92.29 247.85,97.13C234.55,102.61 229.76,115.08 227.48,128.43C227.09,130.74 227.43,133.17 227.43,135.54Z" style="fill:white;fill-rule:nonzero;"/>
                </g>
                <g transform="matrix(1,0,0,1,487.652,-0.58696)">
                    <path d="M524.52,280.45C526.06,296.73 528.17,312.86 542.69,323.61C558.3,335.17 572.25,332.67 583.16,316.61C594.43,300.02 592.16,268.61 578.38,253.2C569.9,243.71 559.21,237.88 546.72,242C531.81,246.91 527.35,260.55 524.58,274.54C524.19,276.43 524.52,278.47 524.52,280.45Z" style="fill:white;fill-rule:nonzero;"/>
                </g>
                <g transform="matrix(1,0,0,1,487.652,-0.58696)">
                    <path d="M732.42,917C762.42,917 774.8,896.41 762.42,873.43C752.69,855.34 724.74,841.89 704.9,845.75C685.96,849.43 677.02,867.39 685.71,885.75C695.72,906.88 714.09,915.26 732.42,917Z" style="fill:white;fill-rule:nonzero;"/>
                </g>
                <g transform="matrix(1,0,0,1,487.652,-0.58696)">
                    <path d="M907.71,765.59C906.974,755.543 904.561,745.69 900.57,736.44C894.57,722.87 881.2,715.24 868.35,716.95C854.7,718.78 848.15,728.79 844.68,740.57C839.68,757.57 842.09,774.37 851.06,789.57C858.25,801.77 873.24,808.45 884.14,805.77C903.7,801 908.87,783.34 907.71,765.59Z" style="fill:white;fill-rule:nonzero;"/>
                </g>
                <g transform="matrix(1,0,0,1,487.652,-0.58696)">
                    <path d="M545.61,612.93C546.137,622.207 548.205,631.332 551.73,639.93C557.98,654.33 573.01,662.71 585.73,660.42C597.51,658.3 609.31,644.94 609.68,629.95C610.047,618.215 608.517,606.498 605.15,595.25C599.85,578.25 585.21,569.65 569.92,571.74C549.85,574.51 544.48,594.06 545.61,612.93Z" style="fill:white;fill-rule:nonzero;"/>
                </g>
            </g>
            <g transform="matrix(0.0070396,0.216679,-0.216679,0.0070396,941.554,157.406)">
                <g transform="matrix(1,0,0,1,487.652,-0.58696)">
                    <path d="M160.78,276.23C160.94,287.29 163.09,298.57 164.25,309.28C166.93,334.03 198.43,341.49 215.87,326.06C217.94,324.23 220.31,322.48 221.71,320.19C234.61,298.97 254.21,288.05 277.44,281.1C287.75,278.02 297.55,271.67 306.22,265.02C322.49,252.55 321.97,234.19 305.39,222.33C277.46,202.33 245.91,193.23 211.72,193.99C190.78,194.46 174.51,207.14 168.64,228.59C165.5,240.08 163.64,251.84 161.64,263.59C160.972,267.769 160.684,271.999 160.78,276.23Z" style="fill:white;fill-rule:nonzero;"/>
                </g>
                <g transform="matrix(1,0,0,1,487.652,-0.58696)">
                    <path d="M458.82,421.9C459.047,433.18 460.006,444.434 461.69,455.59C465.54,481.4 496.9,484.59 511.14,473.19C514.83,470.25 518.79,467.11 521.14,463.19C532.23,444.84 548.84,435.27 568.82,428.66C581.88,424.215 594.046,417.483 604.75,408.78C620.23,396.23 618.88,379.58 602.82,367.97C575.35,348.11 544.13,339.02 510.5,339.27C487.72,339.43 471.73,352.39 465.28,375.99C462.55,385.99 459.93,396.89 459.17,407.25C458.85,411.91 458.74,416.86 458.82,421.9Z" style="fill:white;fill-rule:nonzero;"/>
                </g>
                <g transform="matrix(1,0,0,1,487.652,-0.58696)">
                    <path d="M478,754.31C479.28,764.52 480,774.8 481.93,784.85C486.4,808.44 513.67,817.98 532.59,802.85C533.584,802.191 534.459,801.37 535.18,800.42C550.99,774.42 576.27,762.59 603.66,753.11C611.95,750.24 619.73,744.37 626.26,738.29C640.07,725.42 639.08,710.57 624.14,698.96C604.99,684.08 582.71,676.2 559.08,671.96C551.319,670.487 543.448,669.664 535.55,669.5C509.41,669.29 494.22,680.39 486.05,705.2C484.222,710.406 482.84,715.759 481.92,721.2C480.31,732.19 479.28,743.2 478,754.31Z" style="fill:white;fill-rule:nonzero;"/>
                </g>
                <g transform="matrix(1,0,0,1,487.652,-0.58696)">
                    <path d="M775.09,897.36C776.49,909.17 777.47,918.99 778.86,928.74C780.54,940.52 785.86,949.74 798.1,953.24C810.34,956.74 821.56,955.52 831.41,946.84C831.734,946.612 832.023,946.339 832.27,946.03C848.14,920.23 872.9,907.58 900.67,898.88C906.9,896.88 912.67,892.72 918,888.74C938.66,873.41 938.22,855.32 917,841.09C897.65,828.09 876.13,820.68 853.29,816.82C849.39,816.16 845.48,815.53 841.55,815.08C810,811.49 789.25,825.17 781.69,856C778.23,870.07 777,884.73 775.09,897.36Z" style="fill:white;fill-rule:nonzero;"/>
                </g>
                <g transform="matrix(1,0,0,1,487.652,-0.58696)">
                    <path d="M752.51,726.75C754.75,746.21 761.17,765.1 778.82,778.57C787.82,785.41 797.66,789.46 808.56,785C820.42,780.14 825.64,769.29 825.9,757.47C826.39,735.26 819.39,715.39 801.41,701.07C791.94,693.53 781.04,687.93 768.73,694.33C756.42,700.73 753,712.2 752.51,726.75Z" style="fill:white;fill-rule:nonzero;"/>
                </g>
                <g transform="matrix(1,0,0,1,487.652,-0.58696)">
                    <path d="M469.69,656.26C469.48,626.88 426.69,595.06 398.83,603.62C387.01,607.26 379.32,618.62 381.13,630.9C381.847,636.354 383.47,641.65 385.93,646.57C397.27,668.09 416.11,679.57 439.47,683.28C456.15,685.94 469.81,673 469.69,656.26Z" style="fill:white;fill-rule:nonzero;"/>
                </g>
                <g transform="matrix(1,0,0,1,487.652,-0.58696)">
                    <path d="M705.67,747.94C685.24,747.85 673.8,763.94 679.72,784.34C686.16,806.58 715.45,828.54 738.91,828.71C758.66,828.86 771.1,812.71 765.84,793.71C759,768.92 731.54,748 705.67,747.94Z" style="fill:white;fill-rule:nonzero;"/>
                </g>
                <g transform="matrix(1,0,0,1,487.652,-0.58696)">
                    <path d="M455.55,583.63C457.62,602.95 465.42,623.35 486.49,636.27C503.49,646.68 520.71,640.13 526.93,621.32C535.06,596.72 517.34,558.56 493.21,548.71C473,540.47 455.5,554.84 455.55,583.63Z" style="fill:white;fill-rule:nonzero;"/>
                </g>
                <g transform="matrix(1,0,0,1,487.652,-0.58696)">
                    <path d="M181.46,165.31C197,165.44 208.46,155.91 210.11,142C212.93,117.42 206.11,95.8 186.32,79.8C177.62,72.8 167.86,66.95 155.93,72.03C143.05,77.52 137.56,88.92 137.85,101.55C138.44,126.92 147.91,148.45 171.02,161.77C175,164.06 179.81,164.78 181.46,165.31Z" style="fill:white;fill-rule:nonzero;"/>
                </g>
                <g transform="matrix(1,0,0,1,487.652,-0.58696)">
                    <path d="M508.26,276.05C506.96,256.5 500.35,238.79 484.26,225.85C474.51,218 463.72,211.66 450.8,218.56C438.04,225.37 434.23,237.84 435.08,250.76C436.32,269.66 442.83,286.93 457.79,299.89C467.46,308.27 478.24,314.72 491.08,309.04C504.66,303 508.28,290.5 508.26,276.05Z" style="fill:white;fill-rule:nonzero;"/>
                </g>
                <g transform="matrix(1,0,0,1,487.652,-0.58696)">
                    <path d="M91.94,126.7C70.38,126.19 58.27,142.46 65.01,162.87C72.74,186.25 100.01,207.14 123.86,207.87C144.57,208.53 157.24,188.82 149.52,167.92C141.47,146.14 115.09,127.24 91.94,126.7Z" style="fill:white;fill-rule:nonzero;"/>
                </g>
                <g transform="matrix(1,0,0,1,487.652,-0.58696)">
                    <path d="M387.86,272.19C367.55,272.37 356.17,287.89 362.02,307.43C368.82,330.16 395.31,351.34 418.92,352.95C440.55,354.42 454.13,336.57 447.49,315.41C440.27,292.44 412,272 387.86,272.19Z" style="fill:white;fill-rule:nonzero;"/>
                </g>
                <g transform="matrix(1,0,0,1,487.652,-0.58696)">
                    <path d="M433.38,771.49C450.09,772.15 460.49,768.55 466.73,758.17C473.06,747.63 470.33,736.78 464.57,726.67C454.41,708.83 425.8,696.13 406.15,700.59C387.29,704.87 379.25,724.68 389.55,742.73C400.21,761.4 417.22,770.05 433.38,771.49Z" style="fill:white;fill-rule:nonzero;"/>
                </g>
                <g transform="matrix(1,0,0,1,487.652,-0.58696)">
                    <path d="M419.1,441.18C433.5,441.18 444.6,434.74 448.27,423.34C453.32,407.63 445.86,395.15 435.12,385.34C422.12,373.49 405.9,368.16 388.12,369.98C370.12,371.82 360.12,390.47 367.22,408.23C374.89,427.53 396.47,441.23 419.1,441.18Z" style="fill:white;fill-rule:nonzero;"/>
                </g>
                <g transform="matrix(1,0,0,1,487.652,-0.58696)">
                    <path d="M101.4,224.41C71.92,224.66 59.52,245.74 72.28,267.67C83.9,287.67 102.53,296.42 124.88,295.78C147.23,295.14 158.41,275.78 149.13,255.48C139.08,233.38 119.51,226.45 101.4,224.41Z" style="fill:white;fill-rule:nonzero;"/>
                </g>
                <g transform="matrix(1,0,0,1,487.652,-0.58696)">
                    <path d="M227.43,135.54C228.85,152.3 231.43,168.54 246.79,179.18C260.64,188.72 275.22,186.25 285.01,172.68C297.69,155.1 294.74,120.76 279.12,105.6C270.3,97 259.6,92.29 247.85,97.13C234.55,102.61 229.76,115.08 227.48,128.43C227.09,130.74 227.43,133.17 227.43,135.54Z" style="fill:white;fill-rule:nonzero;"/>
                </g>
                <g transform="matrix(1,0,0,1,487.652,-0.58696)">
                    <path d="M524.52,280.45C526.06,296.73 528.17,312.86 542.69,323.61C558.3,335.17 572.25,332.67 583.16,316.61C594.43,300.02 592.16,268.61 578.38,253.2C569.9,243.71 559.21,237.88 546.72,242C531.81,246.91 527.35,260.55 524.58,274.54C524.19,276.43 524.52,278.47 524.52,280.45Z" style="fill:white;fill-rule:nonzero;"/>
                </g>
                <g transform="matrix(1,0,0,1,487.652,-0.58696)">
                    <path d="M732.42,917C762.42,917 774.8,896.41 762.42,873.43C752.69,855.34 724.74,841.89 704.9,845.75C685.96,849.43 677.02,867.39 685.71,885.75C695.72,906.88 714.09,915.26 732.42,917Z" style="fill:white;fill-rule:nonzero;"/>
                </g>
                <g transform="matrix(1,0,0,1,487.652,-0.58696)">
                    <path d="M907.71,765.59C906.974,755.543 904.561,745.69 900.57,736.44C894.57,722.87 881.2,715.24 868.35,716.95C854.7,718.78 848.15,728.79 844.68,740.57C839.68,757.57 842.09,774.37 851.06,789.57C858.25,801.77 873.24,808.45 884.14,805.77C903.7,801 908.87,783.34 907.71,765.59Z" style="fill:white;fill-rule:nonzero;"/>
                </g>
                <g transform="matrix(1,0,0,1,487.652,-0.58696)">
                    <path d="M545.61,612.93C546.137,622.207 548.205,631.332 551.73,639.93C557.98,654.33 573.01,662.71 585.73,660.42C597.51,658.3 609.31,644.94 609.68,629.95C610.047,618.215 608.517,606.498 605.15,595.25C599.85,578.25 585.21,569.65 569.92,571.74C549.85,574.51 544.48,594.06 545.61,612.93Z" style="fill:white;fill-rule:nonzero;"/>
                </g>
            </g>
            <g transform="matrix(0.169032,0.0612254,-0.0612254,0.169032,938.132,228.282)">
                <g transform="matrix(1,0,0,1,487.652,-0.58696)">
                    <path d="M160.78,276.23C160.94,287.29 163.09,298.57 164.25,309.28C166.93,334.03 198.43,341.49 215.87,326.06C217.94,324.23 220.31,322.48 221.71,320.19C234.61,298.97 254.21,288.05 277.44,281.1C287.75,278.02 297.55,271.67 306.22,265.02C322.49,252.55 321.97,234.19 305.39,222.33C277.46,202.33 245.91,193.23 211.72,193.99C190.78,194.46 174.51,207.14 168.64,228.59C165.5,240.08 163.64,251.84 161.64,263.59C160.972,267.769 160.684,271.999 160.78,276.23Z" style="fill:white;fill-rule:nonzero;"/>
                </g>
                <g transform="matrix(1,0,0,1,487.652,-0.58696)">
                    <path d="M458.82,421.9C459.047,433.18 460.006,444.434 461.69,455.59C465.54,481.4 496.9,484.59 511.14,473.19C514.83,470.25 518.79,467.11 521.14,463.19C532.23,444.84 548.84,435.27 568.82,428.66C581.88,424.215 594.046,417.483 604.75,408.78C620.23,396.23 618.88,379.58 602.82,367.97C575.35,348.11 544.13,339.02 510.5,339.27C487.72,339.43 471.73,352.39 465.28,375.99C462.55,385.99 459.93,396.89 459.17,407.25C458.85,411.91 458.74,416.86 458.82,421.9Z" style="fill:white;fill-rule:nonzero;"/>
                </g>
                <g transform="matrix(1,0,0,1,487.652,-0.58696)">
                    <path d="M478,754.31C479.28,764.52 480,774.8 481.93,784.85C486.4,808.44 513.67,817.98 532.59,802.85C533.584,802.191 534.459,801.37 535.18,800.42C550.99,774.42 576.27,762.59 603.66,753.11C611.95,750.24 619.73,744.37 626.26,738.29C640.07,725.42 639.08,710.57 624.14,698.96C604.99,684.08 582.71,676.2 559.08,671.96C551.319,670.487 543.448,669.664 535.55,669.5C509.41,669.29 494.22,680.39 486.05,705.2C484.222,710.406 482.84,715.759 481.92,721.2C480.31,732.19 479.28,743.2 478,754.31Z" style="fill:white;fill-rule:nonzero;"/>
                </g>
                <g transform="matrix(1,0,0,1,487.652,-0.58696)">
                    <path d="M775.09,897.36C776.49,909.17 777.47,918.99 778.86,928.74C780.54,940.52 785.86,949.74 798.1,953.24C810.34,956.74 821.56,955.52 831.41,946.84C831.734,946.612 832.023,946.339 832.27,946.03C848.14,920.23 872.9,907.58 900.67,898.88C906.9,896.88 912.67,892.72 918,888.74C938.66,873.41 938.22,855.32 917,841.09C897.65,828.09 876.13,820.68 853.29,816.82C849.39,816.16 845.48,815.53 841.55,815.08C810,811.49 789.25,825.17 781.69,856C778.23,870.07 777,884.73 775.09,897.36Z" style="fill:white;fill-rule:nonzero;"/>
                </g>
                <g transform="matrix(1,0,0,1,487.652,-0.58696)">
                    <path d="M752.51,726.75C754.75,746.21 761.17,765.1 778.82,778.57C787.82,785.41 797.66,789.46 808.56,785C820.42,780.14 825.64,769.29 825.9,757.47C826.39,735.26 819.39,715.39 801.41,701.07C791.94,693.53 781.04,687.93 768.73,694.33C756.42,700.73 753,712.2 752.51,726.75Z" style="fill:white;fill-rule:nonzero;"/>
                </g>
                <g transform="matrix(1,0,0,1,487.652,-0.58696)">
                    <path d="M469.69,656.26C469.48,626.88 426.69,595.06 398.83,603.62C387.01,607.26 379.32,618.62 381.13,630.9C381.847,636.354 383.47,641.65 385.93,646.57C397.27,668.09 416.11,679.57 439.47,683.28C456.15,685.94 469.81,673 469.69,656.26Z" style="fill:white;fill-rule:nonzero;"/>
                </g>
                <g transform="matrix(1,0,0,1,487.652,-0.58696)">
                    <path d="M705.67,747.94C685.24,747.85 673.8,763.94 679.72,784.34C686.16,806.58 715.45,828.54 738.91,828.71C758.66,828.86 771.1,812.71 765.84,793.71C759,768.92 731.54,748 705.67,747.94Z" style="fill:white;fill-rule:nonzero;"/>
                </g>
                <g transform="matrix(1,0,0,1,487.652,-0.58696)">
                    <path d="M455.55,583.63C457.62,602.95 465.42,623.35 486.49,636.27C503.49,646.68 520.71,640.13 526.93,621.32C535.06,596.72 517.34,558.56 493.21,548.71C473,540.47 455.5,554.84 455.55,583.63Z" style="fill:white;fill-rule:nonzero;"/>
                </g>
                <g transform="matrix(1,0,0,1,487.652,-0.58696)">
                    <path d="M181.46,165.31C197,165.44 208.46,155.91 210.11,142C212.93,117.42 206.11,95.8 186.32,79.8C177.62,72.8 167.86,66.95 155.93,72.03C143.05,77.52 137.56,88.92 137.85,101.55C138.44,126.92 147.91,148.45 171.02,161.77C175,164.06 179.81,164.78 181.46,165.31Z" style="fill:white;fill-rule:nonzero;"/>
                </g>
                <g transform="matrix(1,0,0,1,487.652,-0.58696)">
                    <path d="M508.26,276.05C506.96,256.5 500.35,238.79 484.26,225.85C474.51,218 463.72,211.66 450.8,218.56C438.04,225.37 434.23,237.84 435.08,250.76C436.32,269.66 442.83,286.93 457.79,299.89C467.46,308.27 478.24,314.72 491.08,309.04C504.66,303 508.28,290.5 508.26,276.05Z" style="fill:white;fill-rule:nonzero;"/>
                </g>
                <g transform="matrix(1,0,0,1,487.652,-0.58696)">
                    <path d="M91.94,126.7C70.38,126.19 58.27,142.46 65.01,162.87C72.74,186.25 100.01,207.14 123.86,207.87C144.57,208.53 157.24,188.82 149.52,167.92C141.47,146.14 115.09,127.24 91.94,126.7Z" style="fill:white;fill-rule:nonzero;"/>
                </g>
                <g transform="matrix(1,0,0,1,487.652,-0.58696)">
                    <path d="M387.86,272.19C367.55,272.37 356.17,287.89 362.02,307.43C368.82,330.16 395.31,351.34 418.92,352.95C440.55,354.42 454.13,336.57 447.49,315.41C440.27,292.44 412,272 387.86,272.19Z" style="fill:white;fill-rule:nonzero;"/>
                </g>
                <g transform="matrix(1,0,0,1,487.652,-0.58696)">
                    <path d="M433.38,771.49C450.09,772.15 460.49,768.55 466.73,758.17C473.06,747.63 470.33,736.78 464.57,726.67C454.41,708.83 425.8,696.13 406.15,700.59C387.29,704.87 379.25,724.68 389.55,742.73C400.21,761.4 417.22,770.05 433.38,771.49Z" style="fill:white;fill-rule:nonzero;"/>
                </g>
                <g transform="matrix(1,0,0,1,487.652,-0.58696)">
                    <path d="M419.1,441.18C433.5,441.18 444.6,434.74 448.27,423.34C453.32,407.63 445.86,395.15 435.12,385.34C422.12,373.49 405.9,368.16 388.12,369.98C370.12,371.82 360.12,390.47 367.22,408.23C374.89,427.53 396.47,441.23 419.1,441.18Z" style="fill:white;fill-rule:nonzero;"/>
                </g>
                <g transform="matrix(1,0,0,1,487.652,-0.58696)">
                    <path d="M101.4,224.41C71.92,224.66 59.52,245.74 72.28,267.67C83.9,287.67 102.53,296.42 124.88,295.78C147.23,295.14 158.41,275.78 149.13,255.48C139.08,233.38 119.51,226.45 101.4,224.41Z" style="fill:white;fill-rule:nonzero;"/>
                </g>
                <g transform="matrix(1,0,0,1,487.652,-0.58696)">
                    <path d="M227.43,135.54C228.85,152.3 231.43,168.54 246.79,179.18C260.64,188.72 275.22,186.25 285.01,172.68C297.69,155.1 294.74,120.76 279.12,105.6C270.3,97 259.6,92.29 247.85,97.13C234.55,102.61 229.76,115.08 227.48,128.43C227.09,130.74 227.43,133.17 227.43,135.54Z" style="fill:white;fill-rule:nonzero;"/>
                </g>
                <g transform="matrix(1,0,0,1,487.652,-0.58696)">
                    <path d="M524.52,280.45C526.06,296.73 528.17,312.86 542.69,323.61C558.3,335.17 572.25,332.67 583.16,316.61C594.43,300.02 592.16,268.61 578.38,253.2C569.9,243.71 559.21,237.88 546.72,242C531.81,246.91 527.35,260.55 524.58,274.54C524.19,276.43 524.52,278.47 524.52,280.45Z" style="fill:white;fill-rule:nonzero;"/>
                </g>
                <g transform="matrix(1,0,0,1,487.652,-0.58696)">
                    <path d="M732.42,917C762.42,917 774.8,896.41 762.42,873.43C752.69,855.34 724.74,841.89 704.9,845.75C685.96,849.43 677.02,867.39 685.71,885.75C695.72,906.88 714.09,915.26 732.42,917Z" style="fill:white;fill-rule:nonzero;"/>
                </g>
                <g transform="matrix(1,0,0,1,487.652,-0.58696)">
                    <path d="M907.71,765.59C906.974,755.543 904.561,745.69 900.57,736.44C894.57,722.87 881.2,715.24 868.35,716.95C854.7,718.78 848.15,728.79 844.68,740.57C839.68,757.57 842.09,774.37 851.06,789.57C858.25,801.77 873.24,808.45 884.14,805.77C903.7,801 908.87,783.34 907.71,765.59Z" style="fill:white;fill-rule:nonzero;"/>
                </g>
                <g transform="matrix(1,0,0,1,487.652,-0.58696)">
                    <path d="M545.61,612.93C546.137,622.207 548.205,631.332 551.73,639.93C557.98,654.33 573.01,662.71 585.73,660.42C597.51,658.3 609.31,644.94 609.68,629.95C610.047,618.215 608.517,606.498 605.15,595.25C599.85,578.25 585.21,569.65 569.92,571.74C549.85,574.51 544.48,594.06 545.61,612.93Z" style="fill:white;fill-rule:nonzero;"/>
                </g>
            </g>
        </g>
    </g>
</svg>
